<svg xmlns="http://www.w3.org/2000/svg" xmlns:xlink="http://www.w3.org/1999/xlink" width="350" zoomAndPan="magnify" viewBox="0 0 375 374.999991" height="350" preserveAspectRatio="xMidYMid meet" version="1.0"><defs><g/><clipPath id="93de578bb2"><path d="M 165 215 L 204 215 L 204 270 L 165 270 Z M 165 215 " clip-rule="nonzero"/></clipPath><clipPath id="3ae115ad63"><path d="M 168.667969 213.421875 L 206.664062 217.808594 L 200.46875 271.453125 L 162.472656 267.0625 Z M 168.667969 213.421875 " clip-rule="nonzero"/></clipPath><clipPath id="6a63cf8911"><path d="M 169.210938 169.808594 L 217.960938 169.808594 L 217.960938 232.808594 L 169.210938 232.808594 Z M 169.210938 169.808594 " clip-rule="nonzero"/></clipPath><clipPath id="d273009927"><path d="M 206 0 L 283 0 L 283 134 L 206 134 Z M 206 0 " clip-rule="nonzero"/></clipPath><clipPath id="32864f03dd"><path d="M 211.664062 -77.835938 L 287.875 -71.214844 L 269.703125 137.996094 L 193.492188 131.378906 Z M 211.664062 -77.835938 " clip-rule="nonzero"/></clipPath><clipPath id="9693c94264"><path d="M 211.664062 -77.835938 L 287.875 -71.214844 L 269.703125 137.996094 L 193.492188 131.378906 Z M 211.664062 -77.835938 " clip-rule="nonzero"/></clipPath><clipPath id="e65f104d5a"><path d="M 158 25 L 246 25 L 246 267 L 158 267 Z M 158 25 " clip-rule="nonzero"/></clipPath><clipPath id="e2b4652603"><path d="M 164.890625 22.34375 L 252.292969 30.140625 L 230.769531 271.429688 L 143.367188 263.636719 Z M 164.890625 22.34375 " clip-rule="nonzero"/></clipPath><clipPath id="2c190ec605"><path d="M 164.890625 22.34375 L 252.292969 30.140625 L 230.769531 271.429688 L 143.367188 263.636719 Z M 164.890625 22.34375 " clip-rule="nonzero"/></clipPath></defs><g fill="#38b6ff" fill-opacity="1"><g transform="translate(38.448673, 282.649226)"><g><path d="M 35.835938 -62.675781 L 39.460938 -89.367188 L 52.082031 -89.367188 C 57.449219 -89.367188 63.109375 -87.628906 62.09375 -76.890625 L 61.949219 -75.296875 C 60.933594 -64.851562 53.824219 -62.675781 48.457031 -62.675781 Z M 32.789062 -38.882812 L 40.476562 -38.882812 L 50.195312 0 L 79.9375 0 L 67.898438 -42.652344 C 78.488281 -47.003906 87.191406 -56.144531 89.660156 -74.570312 L 90.09375 -77.761719 C 94.300781 -109.097656 73.121094 -113.160156 53.96875 -113.160156 L 14.941406 -113.160156 L 0.144531 0 L 27.710938 0 Z M 32.789062 -38.882812 "/></g></g></g><g fill="#38b6ff" fill-opacity="1"><g transform="translate(138.111224, 282.649226)"><g><path d="M 42.074219 2.03125 C 74.859375 2.03125 85.160156 -12.1875 88.207031 -35.980469 L 98.363281 -113.160156 L 70.796875 -113.160156 L 60.789062 -36.703125 C 59.628906 -27.710938 55.710938 -21.761719 43.667969 -21.761719 C 31.628906 -21.761719 30.613281 -27.710938 31.773438 -36.703125 L 41.78125 -113.160156 L 14.21875 -113.160156 L 4.0625 -35.980469 C 1.015625 -12.1875 9.285156 2.03125 42.074219 2.03125 Z M 42.074219 2.03125 "/></g></g></g><g fill="#38b6ff" fill-opacity="1"><g transform="translate(242.851148, 282.649226)"><g><path d="M 100.539062 -113.160156 L 74.425781 -113.160156 L 69.058594 -72.539062 L 67.027344 -50.777344 L 43.957031 -113.160156 L 14.941406 -113.160156 L 0.144531 0 L 26.257812 0 L 31.480469 -40.621094 L 33.65625 -62.382812 L 56.726562 0 L 85.742188 0 Z M 100.539062 -113.160156 "/></g></g></g><g clip-path="url(#93de578bb2)"><g clip-path="url(#3ae115ad63)"><path fill="#38b6ff" d="M 187.664062 215.613281 C 177.171875 214.402344 167.28125 225.429688 165.570312 240.242188 C 163.859375 255.054688 170.976562 268.046875 181.472656 269.257812 C 191.964844 270.46875 201.855469 259.441406 203.566406 244.628906 C 205.277344 229.816406 198.160156 216.828125 187.664062 215.613281 " fill-opacity="1" fill-rule="nonzero"/></g></g><g clip-path="url(#6a63cf8911)"><path fill="#38b6ff" d="M 169.210938 169.808594 L 217.957031 169.808594 L 217.957031 232.808594 L 169.210938 232.808594 L 169.210938 169.808594 " fill-opacity="1" fill-rule="nonzero"/></g><g clip-path="url(#d273009927)"><g clip-path="url(#32864f03dd)"><g clip-path="url(#9693c94264)"><path fill="#ffffff" d="M 281.765625 -5.871094 C 281.101562 -8.574219 280.4375 -11.277344 279.773438 -13.976562 C 279.683594 -14.34375 279.378906 -15.078125 279.550781 -15.410156 C 279.675781 -15.648438 279.929688 -15.796875 280.042969 -16.039062 C 280.144531 -16.265625 280.105469 -16.527344 280.050781 -16.765625 C 279.421875 -19.625 277.324219 -21.90625 276.027344 -24.527344 C 274.46875 -27.675781 274.0625 -31.324219 272.308594 -34.367188 C 271.175781 -36.324219 269.535156 -37.945312 267.765625 -39.355469 C 264.363281 -42.070312 260.464844 -44.082031 256.597656 -46.078125 C 255.015625 -46.894531 253.378906 -47.726562 251.605469 -47.867188 C 251.234375 -47.203125 249.980469 -47.261719 249.460938 -47.820312 C 249.1875 -50.511719 249.71875 -53.277344 250.972656 -55.679688 C 251.070312 -55.871094 251.1875 -56.070312 251.378906 -56.164062 C 251.597656 -56.273438 251.863281 -56.214844 252.101562 -56.265625 C 252.65625 -56.375 252.9375 -56.980469 253.136719 -57.511719 C 253.441406 -58.335938 253.753906 -59.183594 253.71875 -60.058594 C 253.683594 -60.9375 253.207031 -61.855469 252.378906 -62.144531 C 252.214844 -62.203125 252.03125 -62.238281 251.925781 -62.375 C 251.824219 -62.496094 251.816406 -62.664062 251.816406 -62.820312 C 251.820312 -64.40625 252.367188 -66 252.046875 -67.550781 C 251.882812 -68.339844 251.507812 -69.0625 251.128906 -69.773438 C 250.390625 -71.164062 249.585938 -72.605469 248.253906 -73.445312 C 246.90625 -74.296875 245.589844 -74.621094 244.003906 -74.785156 C 241.039062 -75.097656 237.957031 -73.902344 235.980469 -71.679688 C 234 -69.453125 233.179688 -66.257812 233.839844 -63.355469 C 233.632812 -63.871094 232.914062 -64.046875 232.417969 -63.792969 C 231.921875 -63.535156 231.648438 -62.96875 231.597656 -62.414062 C 231.542969 -61.859375 231.675781 -61.304688 231.808594 -60.765625 C 231.988281 -60.035156 232.164062 -59.304688 232.34375 -58.574219 C 232.46875 -58.066406 232.605469 -57.53125 232.96875 -57.15625 C 233.332031 -56.777344 234 -56.640625 234.371094 -57.007812 C 234.851562 -54.171875 235.050781 -51.289062 234.96875 -48.414062 C 234.960938 -48.1875 234.945312 -47.949219 234.816406 -47.761719 C 234.695312 -47.59375 234.496094 -47.496094 234.304688 -47.410156 C 229.578125 -45.25 224.847656 -43.089844 220.121094 -40.929688 C 218.808594 -40.332031 217.902344 -39.15625 217.191406 -37.902344 C 215.648438 -35.1875 214.101562 -32.46875 212.558594 -29.75 C 212.261719 -29.230469 211.96875 -28.707031 211.714844 -28.164062 C 211.210938 -27.070312 210.898438 -25.898438 210.417969 -24.792969 C 210.109375 -24.082031 209.734375 -23.398438 209.347656 -22.726562 C 209.109375 -22.316406 208.863281 -21.898438 208.789062 -21.433594 C 208.71875 -20.964844 208.859375 -20.429688 209.257812 -20.175781 C 208.796875 -19.265625 208.351562 -18.359375 207.703125 -17.574219 C 207.265625 -17.039062 206.78125 -16.527344 206.523438 -15.886719 C 206.230469 -15.167969 206.261719 -14.363281 206.296875 -13.589844 C 206.53125 -8.660156 206.972656 -3.535156 209.496094 0.710938 C 210.203125 1.898438 211.070312 3.023438 211.453125 4.351562 C 212.035156 6.367188 211.410156 8.511719 211.355469 10.609375 C 211.347656 10.878906 211.355469 11.160156 211.457031 11.40625 C 211.570312 11.675781 211.785156 11.886719 211.996094 12.085938 C 213.21875 13.261719 214.582031 14.5 216.273438 14.65625 C 216.644531 14.691406 217.046875 14.660156 217.347656 14.4375 C 217.519531 14.3125 217.652344 14.125 217.847656 14.035156 C 218.238281 13.859375 218.742188 14.128906 219.109375 13.902344 C 219.316406 13.777344 219.425781 13.511719 219.644531 13.410156 C 219.878906 13.296875 220.152344 13.398438 220.402344 13.453125 C 220.945312 13.578125 221.53125 13.492188 222.011719 13.21875 C 222.109375 13.160156 222.207031 13.09375 222.269531 12.996094 C 222.441406 12.71875 222.226562 12.363281 222.003906 12.121094 C 221.226562 11.273438 220.238281 10.621094 219.527344 9.710938 C 218.816406 8.800781 218.4375 7.476562 219.0625 6.507812 C 220.390625 7.261719 220.699219 9.316406 222.15625 9.785156 C 222.546875 9.914062 223.117188 9.78125 223.140625 9.367188 C 223.148438 9.253906 223.105469 9.140625 223.066406 9.03125 C 222.777344 8.257812 222.488281 7.480469 222.199219 6.707031 C 221.960938 6.070312 221.714844 5.417969 221.28125 4.894531 C 220.304688 3.71875 218.515625 3.34375 217.78125 2.007812 C 217.523438 1.539062 217.425781 1.003906 217.335938 0.476562 C 217.085938 -0.945312 216.835938 -2.371094 216.585938 -3.792969 C 216.027344 -6.96875 215.46875 -10.203125 215.886719 -13.398438 C 215.929688 -13.710938 215.996094 -14.050781 216.238281 -14.246094 C 216.378906 -14.359375 216.5625 -14.410156 216.730469 -14.46875 C 217.511719 -14.753906 218.125 -15.355469 218.714844 -15.9375 C 220.175781 -17.378906 221.636719 -18.820312 223.097656 -20.265625 C 223.546875 -20.707031 224.242188 -21.175781 224.742188 -20.789062 C 225.070312 -20.535156 225.085938 -20.054688 225.039062 -19.644531 C 224.894531 -18.324219 224.414062 -17.0625 224.289062 -15.738281 C 224.234375 -15.1875 224.355469 -14.773438 224.421875 -14.25 C 224.515625 -13.523438 224.410156 -12.71875 224.402344 -11.984375 C 224.367188 -8.972656 224.332031 -5.964844 224.296875 -2.953125 C 224.285156 -1.628906 224.269531 -0.300781 224.105469 1.011719 C 223.933594 2.394531 223.601562 3.757812 223.511719 5.148438 C 223.441406 6.21875 223.515625 7.289062 223.515625 8.359375 C 223.511719 11.355469 222.902344 14.351562 221.734375 17.109375 C 221.039062 18.757812 220.125 20.410156 220.207031 22.195312 C 220.257812 23.367188 219.632812 24.339844 219.238281 25.445312 C 218.4375 27.699219 218.300781 30.148438 217.480469 32.398438 C 216.492188 35.109375 216.132812 37.722656 215.722656 40.578125 C 215.160156 44.496094 215.878906 48.476562 216.597656 52.371094 C 216.628906 52.527344 216.660156 52.695312 216.753906 52.824219 C 217.03125 53.199219 217.773438 53.242188 217.746094 53.707031 C 217.648438 55.238281 218.394531 56.726562 218.757812 58.21875 C 219.296875 60.433594 219.839844 62.679688 219.75 64.957031 C 219.714844 65.777344 219.597656 66.597656 219.570312 67.421875 C 219.535156 68.46875 219.644531 69.523438 219.894531 70.542969 C 220.648438 73.613281 219.171875 76.625 218.195312 79.464844 C 217.671875 80.984375 217.484375 82.464844 217.195312 84.027344 C 216.898438 85.632812 217.167969 87.371094 217.246094 89.003906 C 217.332031 90.839844 217.417969 92.675781 217.59375 94.503906 C 218.214844 100.921875 219.949219 107.25 219.800781 113.695312 C 220.128906 114.222656 219.992188 114.863281 219.8125 115.457031 C 219.628906 116.054688 219.324219 116.605469 219.140625 117.199219 C 218.9375 117.851562 218.894531 118.539062 218.847656 119.222656 C 218.722656 121.121094 218.609375 123.019531 218.601562 124.925781 C 218.597656 125.621094 218.605469 126.324219 218.457031 127.007812 C 218.300781 127.726562 217.972656 128.398438 217.828125 129.121094 C 217.695312 129.792969 217.722656 130.484375 217.75 131.167969 C 217.777344 131.835938 217.851562 132.59375 218.386719 133 C 218.703125 133.238281 219.117188 133.296875 219.511719 133.34375 C 220.34375 133.449219 221.175781 133.554688 222.007812 133.65625 C 222.347656 133.699219 222.691406 133.742188 223.023438 133.675781 C 223.324219 133.617188 223.597656 133.472656 223.871094 133.339844 C 224.8125 132.882812 225.804688 132.519531 226.820312 132.257812 C 228.066406 131.941406 229.460938 131.714844 230.28125 130.726562 C 230.851562 130.039062 231.023438 129.089844 230.941406 128.203125 C 230.859375 127.3125 230.546875 126.464844 230.242188 125.625 C 229.253906 122.914062 228.285156 120.160156 228.015625 117.289062 C 227.921875 116.296875 227.878906 115.207031 227.207031 114.46875 C 226.828125 111.328125 226.710938 107.96875 227.378906 104.871094 C 228.195312 101.085938 229.785156 97.449219 230.066406 93.589844 C 230.277344 90.703125 231.378906 88.160156 231.589844 85.269531 C 231.667969 84.25 231.703125 83.21875 231.574219 82.203125 C 231.449219 81.179688 231.15625 80.179688 231.019531 79.15625 C 230.777344 77.394531 230.996094 75.570312 231.644531 73.914062 C 232.332031 72.15625 232.183594 70.09375 232.417969 68.222656 C 232.519531 67.421875 232.621094 66.621094 232.78125 65.835938 C 232.90625 65.226562 233.066406 64.625 233.195312 64.015625 C 233.632812 61.949219 233.710938 59.824219 233.710938 57.710938 C 233.714844 54.480469 234.214844 51.230469 234.734375 48.042969 C 235.25 50.144531 235.550781 52.296875 235.636719 54.457031 C 235.664062 55.089844 235.671875 55.746094 235.917969 56.332031 C 236.011719 56.550781 236.132812 56.757812 236.199219 56.980469 C 236.285156 57.261719 236.28125 57.558594 236.273438 57.847656 C 236.199219 60.636719 235.84375 63.417969 235.210938 66.136719 C 234.953125 67.238281 234.648438 68.359375 234.789062 69.480469 C 234.980469 71 235.960938 72.320312 236.226562 73.828125 C 237.394531 75.070312 237.199219 76.785156 237.089844 78.488281 C 237.007812 79.84375 236.917969 81.222656 236.46875 82.503906 C 236.105469 83.535156 235.519531 84.472656 235.085938 85.476562 C 233.507812 89.164062 234.144531 93.414062 235.277344 97.261719 C 235.335938 97.464844 235.402344 97.671875 235.539062 97.832031 C 235.714844 98.039062 235.988281 98.136719 236.246094 98.222656 C 237.222656 98.554688 238.335938 98.875 239.234375 98.375 C 239.640625 98.148438 239.941406 97.785156 240.246094 97.4375 C 242.414062 94.976562 245.273438 92.835938 246.078125 89.660156 C 246.976562 86.121094 245.023438 82.527344 244.753906 78.886719 C 244.730469 78.574219 244.71875 78.253906 244.832031 77.964844 C 244.945312 77.660156 245.175781 77.417969 245.398438 77.183594 C 246.421875 76.082031 247.34375 74.835938 247.757812 73.390625 C 248.636719 70.316406 247.082031 66.949219 247.902344 63.859375 C 247.757812 63.386719 248.363281 62.84375 248.855469 62.757812 C 249.34375 62.671875 249.847656 62.804688 250.34375 62.753906 C 251.777344 62.617188 252.628906 61.089844 253.011719 59.703125 C 253.671875 57.304688 253.683594 54.78125 254.191406 52.347656 C 254.707031 49.886719 255.726562 47.550781 256.222656 45.085938 C 256.449219 43.984375 256.566406 42.859375 256.699219 41.742188 C 257.222656 37.328125 257.972656 32.945312 258.953125 28.609375 C 259.109375 27.90625 259.601562 27.25 260.269531 26.964844 C 260.449219 26.886719 260.660156 26.855469 260.800781 26.71875 C 260.9375 26.582031 260.976562 26.378906 261.003906 26.191406 C 261.339844 23.902344 261.003906 21.554688 261.300781 19.261719 C 261.46875 17.972656 261.835938 16.71875 262.050781 15.4375 C 262.371094 13.507812 262.347656 11.542969 262.324219 9.589844 C 264.113281 7.882812 266.9375 7.585938 269.179688 6.539062 C 270.042969 6.140625 270.847656 5.625 271.644531 5.113281 C 273.105469 4.175781 274.566406 3.242188 276.027344 2.304688 C 276.890625 1.753906 277.753906 1.199219 278.550781 0.554688 C 279.550781 -0.25 280.441406 -1.191406 281.1875 -2.238281 C 281.535156 -2.722656 281.859375 -3.246094 281.96875 -3.828125 C 282.097656 -4.507812 281.929688 -5.203125 281.765625 -5.871094 Z M 270.8125 -7.082031 C 270.75 -6.804688 270.515625 -6.601562 270.296875 -6.414062 C 268.5 -4.859375 267.0625 -2.949219 265.304688 -1.355469 C 264.949219 -1.03125 263.054688 0.792969 262.554688 0.449219 C 262.320312 0.285156 262.417969 -2.949219 262.378906 -3.46875 C 262.238281 -5.46875 262.558594 -7.46875 262.765625 -9.460938 C 263.054688 -12.238281 263.113281 -15.039062 262.949219 -17.828125 C 264.785156 -16.148438 266.179688 -13.992188 266.953125 -11.632812 C 267.105469 -11.167969 267.28125 -10.644531 267.722656 -10.4375 C 268.039062 -10.289062 268.425781 -10.347656 268.734375 -10.183594 C 268.933594 -10.078125 269.078125 -9.890625 269.214844 -9.707031 C 269.621094 -9.167969 270.027344 -8.632812 270.433594 -8.089844 C 270.65625 -7.792969 270.890625 -7.445312 270.8125 -7.082031 Z M 270.8125 -7.082031 " fill-opacity="1" fill-rule="nonzero"/></g></g></g><g clip-path="url(#e65f104d5a)"><g clip-path="url(#e2b4652603)"><g clip-path="url(#2c190ec605)"><path fill="#ffffff" d="M 245.074219 105.503906 C 244.320312 102.382812 243.570312 99.265625 242.816406 96.144531 C 242.714844 95.722656 242.363281 94.878906 242.5625 94.492188 C 242.707031 94.21875 243 94.046875 243.128906 93.769531 C 243.246094 93.511719 243.199219 93.207031 243.140625 92.929688 C 242.429688 89.632812 240.03125 86.996094 238.550781 83.96875 C 236.773438 80.332031 236.320312 76.125 234.316406 72.609375 C 233.023438 70.347656 231.144531 68.476562 229.121094 66.847656 C 225.226562 63.707031 220.761719 61.378906 216.332031 59.066406 C 214.519531 58.125 212.644531 57.160156 210.609375 56.992188 C 210.1875 57.761719 208.746094 57.6875 208.152344 57.046875 C 207.847656 53.9375 208.46875 50.746094 209.910156 47.980469 C 210.023438 47.761719 210.15625 47.53125 210.378906 47.421875 C 210.632812 47.300781 210.933594 47.363281 211.207031 47.308594 C 211.84375 47.179688 212.171875 46.484375 212.398438 45.871094 C 212.753906 44.921875 213.113281 43.945312 213.074219 42.933594 C 213.035156 41.921875 212.496094 40.859375 211.542969 40.523438 C 211.359375 40.460938 211.148438 40.414062 211.023438 40.261719 C 210.910156 40.121094 210.902344 39.925781 210.902344 39.742188 C 210.910156 37.917969 211.542969 36.082031 211.183594 34.289062 C 210.996094 33.378906 210.566406 32.542969 210.136719 31.722656 C 209.296875 30.117188 208.375 28.453125 206.847656 27.480469 C 205.304688 26.496094 203.800781 26.121094 201.980469 25.925781 C 198.582031 25.5625 195.039062 26.929688 192.765625 29.492188 C 190.488281 32.054688 189.535156 35.742188 190.285156 39.089844 C 190.046875 38.492188 189.222656 38.289062 188.652344 38.585938 C 188.082031 38.878906 187.769531 39.53125 187.707031 40.171875 C 187.644531 40.8125 187.796875 41.449219 187.945312 42.074219 C 188.148438 42.917969 188.347656 43.761719 188.550781 44.605469 C 188.691406 45.191406 188.847656 45.804688 189.261719 46.242188 C 189.679688 46.675781 190.445312 46.835938 190.871094 46.414062 C 191.414062 49.6875 191.632812 53.011719 191.527344 56.328125 C 191.519531 56.589844 191.503906 56.867188 191.355469 57.078125 C 191.214844 57.277344 190.984375 57.386719 190.765625 57.484375 C 185.335938 59.964844 179.90625 62.449219 174.472656 64.929688 C 172.96875 65.617188 171.921875 66.972656 171.101562 68.414062 C 169.324219 71.546875 167.542969 74.679688 165.765625 77.808594 C 165.421875 78.410156 165.082031 79.011719 164.792969 79.640625 C 164.210938 80.898438 163.84375 82.25 163.292969 83.523438 C 162.9375 84.34375 162.503906 85.128906 162.054688 85.90625 C 161.785156 86.375 161.5 86.859375 161.414062 87.398438 C 161.328125 87.9375 161.488281 88.554688 161.945312 88.847656 C 161.414062 89.894531 160.898438 90.941406 160.152344 91.847656 C 159.648438 92.460938 159.089844 93.054688 158.792969 93.789062 C 158.457031 94.621094 158.488281 95.546875 158.527344 96.4375 C 158.777344 102.125 159.273438 108.039062 162.148438 112.941406 C 162.957031 114.316406 163.949219 115.613281 164.386719 117.148438 C 165.046875 119.472656 164.320312 121.945312 164.253906 124.363281 C 164.242188 124.675781 164.246094 124.996094 164.367188 125.285156 C 164.492188 125.597656 164.742188 125.839844 164.980469 126.070312 C 166.382812 127.425781 167.941406 128.859375 169.878906 129.042969 C 170.304688 129.082031 170.769531 129.050781 171.113281 128.792969 C 171.3125 128.648438 171.464844 128.433594 171.6875 128.332031 C 172.136719 128.128906 172.714844 128.4375 173.136719 128.179688 C 173.375 128.035156 173.496094 127.730469 173.753906 127.609375 C 174.019531 127.484375 174.332031 127.597656 174.621094 127.667969 C 175.242188 127.808594 175.914062 127.710938 176.46875 127.394531 C 176.582031 127.328125 176.691406 127.253906 176.761719 127.140625 C 176.960938 126.820312 176.714844 126.410156 176.460938 126.132812 C 175.570312 125.152344 174.441406 124.394531 173.628906 123.347656 C 172.816406 122.296875 172.386719 120.761719 173.105469 119.648438 C 174.628906 120.523438 174.972656 122.890625 176.644531 123.4375 C 177.09375 123.582031 177.746094 123.433594 177.773438 122.957031 C 177.78125 122.824219 177.734375 122.695312 177.691406 122.570312 C 177.359375 121.675781 177.03125 120.78125 176.703125 119.882812 C 176.429688 119.148438 176.152344 118.398438 175.65625 117.792969 C 174.539062 116.4375 172.488281 115.996094 171.648438 114.453125 C 171.355469 113.914062 171.246094 113.296875 171.144531 112.691406 C 170.859375 111.046875 170.578125 109.40625 170.296875 107.761719 C 169.667969 104.097656 169.039062 100.367188 169.53125 96.679688 C 169.578125 96.320312 169.652344 95.929688 169.933594 95.703125 C 170.097656 95.570312 170.304688 95.515625 170.5 95.445312 C 171.394531 95.117188 172.101562 94.429688 172.777344 93.757812 C 174.460938 92.097656 176.140625 90.4375 177.820312 88.773438 C 178.339844 88.265625 179.140625 87.726562 179.710938 88.175781 C 180.085938 88.46875 180.101562 89.023438 180.046875 89.496094 C 179.875 91.019531 179.320312 92.472656 179.171875 93.996094 C 179.109375 94.636719 179.246094 95.113281 179.320312 95.714844 C 179.425781 96.554688 179.300781 97.484375 179.289062 98.328125 C 179.242188 101.800781 179.191406 105.273438 179.144531 108.75 C 179.121094 110.277344 179.101562 111.808594 178.910156 113.320312 C 178.707031 114.917969 178.320312 116.488281 178.214844 118.089844 C 178.128906 119.324219 178.214844 120.558594 178.207031 121.796875 C 178.195312 125.253906 177.484375 128.707031 176.136719 131.886719 C 175.332031 133.78125 174.28125 135.6875 174.367188 137.746094 C 174.421875 139.101562 173.703125 140.222656 173.246094 141.496094 C 172.316406 144.09375 172.15625 146.917969 171.207031 149.511719 C 170.066406 152.636719 169.644531 155.648438 169.164062 158.945312 C 168.507812 163.464844 169.316406 168.054688 170.128906 172.546875 C 170.164062 172.730469 170.199219 172.921875 170.308594 173.074219 C 170.625 173.503906 171.476562 173.558594 171.441406 174.09375 C 171.324219 175.859375 172.175781 177.578125 172.589844 179.300781 C 173.199219 181.851562 173.816406 184.449219 173.703125 187.074219 C 173.660156 188.023438 173.527344 188.964844 173.492188 189.914062 C 173.449219 191.125 173.570312 192.339844 173.855469 193.515625 C 174.710938 197.0625 173.003906 200.53125 171.875 203.804688 C 171.269531 205.558594 171.050781 207.265625 170.710938 209.066406 C 170.367188 210.917969 170.667969 212.925781 170.753906 214.808594 C 170.847656 216.925781 170.9375 219.042969 171.136719 221.15625 C 171.828125 228.558594 173.796875 235.863281 173.605469 243.296875 C 173.980469 243.90625 173.820312 244.644531 173.613281 245.328125 C 173.402344 246.015625 173.046875 246.648438 172.835938 247.335938 C 172.601562 248.085938 172.546875 248.882812 172.496094 249.667969 C 172.347656 251.859375 172.207031 254.050781 172.191406 256.246094 C 172.183594 257.050781 172.195312 257.863281 172.023438 258.648438 C 171.839844 259.476562 171.460938 260.253906 171.292969 261.085938 C 171.136719 261.859375 171.167969 262.65625 171.195312 263.445312 C 171.226562 264.21875 171.308594 265.09375 171.917969 265.558594 C 172.28125 265.835938 172.757812 265.902344 173.210938 265.960938 C 174.164062 266.082031 175.117188 266.207031 176.074219 266.328125 C 176.460938 266.375 176.855469 266.425781 177.238281 266.351562 C 177.578125 266.28125 177.894531 266.117188 178.210938 265.964844 C 179.292969 265.4375 180.429688 265.019531 181.597656 264.722656 C 183.027344 264.359375 184.628906 264.101562 185.574219 262.964844 C 186.230469 262.171875 186.429688 261.078125 186.335938 260.054688 C 186.246094 259.027344 185.890625 258.046875 185.542969 257.082031 C 184.417969 253.953125 183.320312 250.769531 183.015625 247.457031 C 182.914062 246.3125 182.863281 245.058594 182.101562 244.207031 C 181.675781 240.578125 181.550781 236.703125 182.328125 233.132812 C 183.277344 228.769531 185.109375 224.578125 185.445312 220.125 C 185.699219 216.792969 186.96875 213.863281 187.222656 210.53125 C 187.3125 209.351562 187.355469 208.164062 187.214844 206.992188 C 187.070312 205.808594 186.742188 204.65625 186.582031 203.476562 C 186.3125 201.441406 186.570312 199.339844 187.320312 197.433594 C 188.113281 195.40625 187.953125 193.023438 188.226562 190.867188 C 188.34375 189.945312 188.460938 189.023438 188.648438 188.113281 C 188.792969 187.410156 188.980469 186.71875 189.128906 186.015625 C 189.640625 183.632812 189.734375 181.179688 189.742188 178.746094 C 189.757812 175.019531 190.339844 171.273438 190.949219 167.597656 C 191.53125 170.019531 191.871094 172.5 191.964844 174.992188 C 191.992188 175.726562 192 176.484375 192.28125 177.160156 C 192.382812 177.410156 192.523438 177.648438 192.601562 177.910156 C 192.695312 178.230469 192.691406 178.574219 192.679688 178.90625 C 192.585938 182.125 192.167969 185.332031 191.433594 188.464844 C 191.136719 189.734375 190.785156 191.03125 190.941406 192.324219 C 191.15625 194.078125 192.277344 195.601562 192.578125 197.339844 C 193.914062 198.777344 193.679688 200.753906 193.554688 202.71875 C 193.453125 204.285156 193.347656 205.871094 192.824219 207.351562 C 192.40625 208.539062 191.730469 209.617188 191.230469 210.777344 C 189.40625 215.027344 190.125 219.933594 191.410156 224.371094 C 191.480469 224.605469 191.550781 224.84375 191.707031 225.03125 C 191.910156 225.269531 192.222656 225.382812 192.519531 225.484375 C 193.636719 225.867188 194.914062 226.238281 195.949219 225.664062 C 196.414062 225.40625 196.761719 224.984375 197.113281 224.585938 C 199.605469 221.75 202.890625 219.289062 203.828125 215.625 C 204.867188 211.546875 202.640625 207.394531 202.339844 203.195312 C 202.3125 202.835938 202.304688 202.464844 202.433594 202.128906 C 202.5625 201.78125 202.832031 201.503906 203.085938 201.230469 C 204.265625 199.964844 205.328125 198.527344 205.804688 196.859375 C 206.824219 193.316406 205.050781 189.433594 206.003906 185.867188 C 205.835938 185.320312 206.535156 184.699219 207.097656 184.597656 C 207.660156 184.5 208.238281 184.652344 208.804688 184.597656 C 210.453125 184.441406 211.433594 182.683594 211.878906 181.082031 C 212.640625 178.320312 212.664062 175.40625 213.253906 172.601562 C 213.851562 169.765625 215.027344 167.074219 215.609375 164.230469 C 215.867188 162.957031 216.007812 161.664062 216.164062 160.371094 C 216.777344 155.285156 217.65625 150.226562 218.789062 145.230469 C 218.976562 144.414062 219.542969 143.660156 220.308594 143.335938 C 220.515625 143.246094 220.757812 143.207031 220.917969 143.050781 C 221.078125 142.894531 221.121094 142.660156 221.15625 142.441406 C 221.546875 139.800781 221.167969 137.097656 221.515625 134.449219 C 221.714844 132.964844 222.136719 131.515625 222.386719 130.039062 C 222.761719 127.816406 222.742188 125.550781 222.722656 123.296875 C 224.78125 121.328125 228.019531 120.992188 230.597656 119.792969 C 231.585938 119.332031 232.507812 118.738281 233.429688 118.152344 C 235.109375 117.074219 236.785156 115.996094 238.464844 114.921875 C 239.457031 114.285156 240.449219 113.648438 241.367188 112.90625 C 242.515625 111.980469 243.539062 110.894531 244.398438 109.691406 C 244.800781 109.132812 245.171875 108.53125 245.300781 107.855469 C 245.449219 107.074219 245.261719 106.273438 245.074219 105.503906 Z M 232.511719 104.082031 C 232.4375 104.402344 232.167969 104.636719 231.917969 104.851562 C 229.851562 106.640625 228.195312 108.839844 226.175781 110.675781 C 225.765625 111.046875 223.585938 113.152344 223.015625 112.753906 C 222.746094 112.566406 222.867188 108.832031 222.828125 108.230469 C 222.671875 105.925781 223.046875 103.621094 223.289062 101.320312 C 223.628906 98.117188 223.707031 94.886719 223.527344 91.667969 C 225.625 93.609375 227.21875 96.101562 228.101562 98.824219 C 228.273438 99.359375 228.472656 99.964844 228.976562 100.203125 C 229.339844 100.375 229.785156 100.3125 230.136719 100.5 C 230.367188 100.625 230.53125 100.839844 230.6875 101.046875 C 231.152344 101.671875 231.617188 102.292969 232.078125 102.917969 C 232.332031 103.257812 232.605469 103.664062 232.511719 104.082031 Z M 232.511719 104.082031 " fill-opacity="1" fill-rule="nonzero"/></g></g></g><g fill="#545454" fill-opacity="1"><g transform="translate(117.640527, 140.438418)"><g><path d="M 5.335938 0 L 13.199219 0 L 15.511719 -11.527344 C 15.902344 -13.554688 16.222656 -15.691406 16.542969 -17.683594 L 16.722656 -17.683594 C 16.972656 -15.691406 17.328125 -13.554688 17.753906 -11.527344 L 20.136719 0 L 28.144531 0 L 32.734375 -26.472656 L 26.683594 -26.472656 L 24.976562 -14.410156 C 24.65625 -11.671875 24.300781 -8.859375 23.980469 -6.011719 L 23.800781 -6.011719 C 23.269531 -8.859375 22.804688 -11.707031 22.273438 -14.410156 L 19.496094 -26.472656 L 14.160156 -26.472656 L 11.457031 -14.410156 C 10.921875 -11.671875 10.390625 -8.824219 9.890625 -6.011719 L 9.75 -6.011719 L 8.679688 -14.410156 L 7.007812 -26.472656 L 0.5 -26.472656 Z M 5.335938 0 "/></g></g></g><g fill="#545454" fill-opacity="1"><g transform="translate(150.897805, 140.438418)"><g><path d="M 3.058594 0 L 20.246094 0 L 20.246094 -5.335938 L 9.429688 -5.335938 L 9.429688 -10.957031 L 18.289062 -10.957031 L 18.289062 -16.296875 L 9.429688 -16.296875 L 9.429688 -21.207031 L 19.851562 -21.207031 L 19.851562 -26.472656 L 3.058594 -26.472656 Z M 3.058594 0 "/></g></g></g><g fill="#545454" fill-opacity="1"><g transform="translate(173.306452, 140.438418)"><g><path d="M 3.058594 0 L 20.246094 0 L 20.246094 -5.335938 L 9.429688 -5.335938 L 9.429688 -10.957031 L 18.289062 -10.957031 L 18.289062 -16.296875 L 9.429688 -16.296875 L 9.429688 -21.207031 L 19.851562 -21.207031 L 19.851562 -26.472656 L 3.058594 -26.472656 Z M 3.058594 0 "/></g></g></g><g fill="#545454" fill-opacity="1"><g transform="translate(195.7151, 140.438418)"><g><path d="M 3.058594 0 L 9.429688 0 L 9.429688 -6.9375 L 12.308594 -10.851562 L 18.535156 0 L 25.511719 0 L 16.011719 -15.867188 L 24.015625 -26.472656 L 17.042969 -26.472656 L 9.535156 -16.011719 L 9.429688 -16.011719 L 9.429688 -26.472656 L 3.058594 -26.472656 Z M 3.058594 0 "/></g></g></g><g fill="#545454" fill-opacity="1"><g transform="translate(220.898154, 140.438418)"><g><path d="M 3.058594 0 L 19.710938 0 L 19.710938 -5.335938 L 9.429688 -5.335938 L 9.429688 -26.472656 L 3.058594 -26.472656 Z M 3.058594 0 "/></g></g></g><g fill="#545454" fill-opacity="1"><g transform="translate(242.133021, 140.438418)"><g><path d="M 7.648438 0 L 13.984375 0 L 13.984375 -9.355469 L 21.988281 -26.472656 L 15.335938 -26.472656 L 13.128906 -20.601562 C 12.382812 -18.609375 11.671875 -16.757812 10.921875 -14.695312 L 10.78125 -14.695312 C 10.035156 -16.757812 9.355469 -18.609375 8.644531 -20.601562 L 6.441406 -26.472656 L -0.320312 -26.472656 L 7.648438 -9.355469 Z M 7.648438 0 "/></g></g></g></svg>