<svg width="260" height="54" viewBox="0 0 260 54" fill="none" xmlns="http://www.w3.org/2000/svg">
<rect width="260" height="54" rx="10" fill="#03C75A"/>
<path d="M37.2488 27.7L29.4562 17H23V37H29.7686V26.3L37.5438 37H44V17H37.2488V27.7Z" fill="white"/>
<path d="M92.9855 21.878V31.418H94.4615V21.878H92.9855ZM92.9855 30.986V32.282H94.0295C95.9915 32.282 97.8095 32.192 99.9335 31.76L99.7355 30.482C97.6835 30.896 95.9195 30.986 94.0295 30.986H92.9855ZM104.596 20.132V36.404H106.036V20.132H104.596ZM97.5035 25.586V26.828H101.572V25.586H97.5035ZM101.158 20.51V35.576H102.562V20.51H101.158ZM120.578 20.114V36.422H122.072V20.114H120.578ZM113.486 21.374C111.092 21.374 109.364 23.588 109.364 27.044C109.364 30.518 111.092 32.732 113.486 32.732C115.898 32.732 117.626 30.518 117.626 27.044C117.626 23.588 115.898 21.374 113.486 21.374ZM113.486 22.724C115.088 22.724 116.186 24.416 116.186 27.044C116.186 29.69 115.088 31.418 113.486 31.418C111.902 31.418 110.786 29.69 110.786 27.044C110.786 24.416 111.902 22.724 113.486 22.724ZM137.245 20.114V36.422H138.721V20.114H137.245ZM132.943 26.162V27.386H137.677V26.162H132.943ZM125.977 21.41V32.336H133.447V21.41H131.971V25.64H127.453V21.41H125.977ZM127.453 26.828H131.971V31.094H127.453V26.828ZM145.913 33.164V34.406H160.655V33.164H145.913ZM152.501 29.672V33.686H153.995V29.672H152.501ZM147.695 21.338V22.544H157.361V25.064H147.749V29.528H149.225V26.27H158.837V21.338H147.695ZM147.749 28.898V30.122H159.215V28.898H147.749ZM164.055 21.86V23.066H174.531V21.86H164.055ZM162.471 32.786V34.028H177.177V32.786H162.471ZM173.739 21.86V23.48C173.739 25.496 173.739 27.926 173.091 31.256L174.585 31.4C175.197 27.89 175.197 25.568 175.197 23.48V21.86H173.739ZM190.856 20.15V32.03H192.368V20.15H190.856ZM181.91 34.82V36.044H192.854V34.82H181.91ZM181.91 30.806V35.234H183.386V30.806H181.91ZM183.638 21.266C181.208 21.266 179.39 22.922 179.39 25.28C179.39 27.62 181.208 29.294 183.638 29.294C186.068 29.294 187.868 27.62 187.868 25.28C187.868 22.922 186.068 21.266 183.638 21.266ZM183.638 22.562C185.222 22.562 186.428 23.678 186.428 25.28C186.428 26.864 185.222 27.98 183.638 27.98C182.054 27.98 180.848 26.864 180.848 25.28C180.848 23.678 182.054 22.562 183.638 22.562Z" fill="white"/>
</svg>
