<svg width="21" height="21" viewBox="0 0 21 21" fill="none" xmlns="http://www.w3.org/2000/svg">
<path d="M18.9999 7.73L16.9999 4.27C14.8799 5.2 12.4599 3.81 12.2099 1.5H8.20991C7.94991 3.8 5.53991 5.2 3.41991 4.27L1.40991 7.73C3.27991 9.1 3.27991 11.89 1.40991 13.27L3.40991 16.73C5.52991 15.8 7.94991 17.19 8.19991 19.5H12.1999C12.4599 17.2 14.8699 15.8 16.9899 16.73L18.9899 13.27C17.1199 11.9 17.1199 9.11 18.9899 7.73H18.9999Z" stroke="black" stroke-width="1.5" stroke-miterlimit="10"/>
<path d="M10.2 13.5C11.8568 13.5 13.2 12.1569 13.2 10.5C13.2 8.84315 11.8568 7.5 10.2 7.5C8.5431 7.5 7.19995 8.84315 7.19995 10.5C7.19995 12.1569 8.5431 13.5 10.2 13.5Z" stroke="black" stroke-width="1.5" stroke-miterlimit="10"/>
</svg>
